<?xml version="1.0" encoding="utf-8"?>
<!-- Generator: Adobe Illustrator 23.0.6, SVG Export Plug-In . SVG Version: 6.00 Build 0)  -->
<svg version="1.1" id="Layer_1" xmlns="http://www.w3.org/2000/svg" xmlns:xlink="http://www.w3.org/1999/xlink" x="0px" y="0px"
	 viewBox="0 0 18.8 24.8" style="enable-background:new 0 0 18.8 24.8;" xml:space="preserve">
<style type="text/css">
	.st0{fill:#EB2E56;}
	.st1{fill:#C4C5C7;}
</style>
<g>
	<path class="st0" d="M15.9,10.4L15.9,10.4C15.8,10.4,15.9,10.4,15.9,10.4l-0.1-4C15.9,2.9,13,0,9.4,0C9.3,0,9.2,0,9.1,0
		C5.6,0.2,2.9,3.1,3,6.6v3.8H2.9c-1.6,0-2.9,1.3-2.9,2.9v8.6c0,1.6,1.3,2.9,2.9,2.9h13c1.6,0,2.9-1.3,2.9-2.9v-8.6
		C18.8,11.7,17.5,10.4,15.9,10.4z M5.5,6.6c0-2.1,1.6-3.9,3.7-4.1c2.2-0.1,4.1,1.5,4.2,3.7c0,0.1,0,0.2,0,0.2v3.9c0,0,0,0,0,0H5.5
		V6.6z M16.4,21.9c0,0.2-0.2,0.4-0.4,0.4h-13c-0.2,0-0.4-0.2-0.4-0.4v-8.6c0-0.2,0.2-0.4,0.4-0.4h13c0.2,0,0.4,0.2,0.4,0.4V21.9z"/>
	<path class="st0" d="M9.4,15.4c-0.7,0-1.2,0.6-1.2,1.2v2c0,0.7,0.6,1.2,1.2,1.2c0.7,0,1.2-0.6,1.2-1.2v-2
		C10.7,15.9,10.1,15.4,9.4,15.4z"/>
</g>
</svg>
